<?xml version="1.0" standalone="no"?>
<!DOCTYPE svg PUBLIC "-//W3C//DTD SVG 20010904//EN"
 "http://www.w3.org/TR/2001/REC-SVG-20010904/DTD/svg10.dtd">
<svg version="1.0" xmlns="http://www.w3.org/2000/svg"
 width="489.000000pt" height="489.000000pt" viewBox="0 0 489.000000 489.000000"
 preserveAspectRatio="xMidYMid meet">

<!-- White circular background -->
<circle cx="244.5" cy="244.5" r="240" fill="white" stroke="#e5e5e5" stroke-width="8"/>

<g transform="translate(0.000000,489.000000) scale(0.100000,-0.100000)"
fill="#000000" stroke="none">
<path d="M2327 3859 c-130 -30 -245 -136 -281 -259 -31 -104 -15 -180 38 -180
29 0 66 46 66 81 0 83 62 179 142 220 95 48 220 30 304 -44 64 -57 88 -107 88
-187 0 -106 -44 -169 -157 -225 -114 -57 -137 -98 -137 -238 0 -91 -2 -106
-17 -111 -42 -16 -1568 -1048 -1635 -1106 -67 -58 -91 -114 -86 -199 5 -90 38
-142 111 -177 l52 -24 383 0 382 0 0 -72 c0 -72 -23 -146 -49 -162 -32 -20 2
-26 159 -26 94 0 170 4 170 9 0 5 -7 14 -16 21 -37 32 -39 48 -44 448 -3 215
-3 392 -1 392 2 0 13 -12 25 -27 11 -16 71 -86 131 -158 61 -71 193 -228 294
-347 100 -120 186 -218 191 -218 4 0 131 147 283 328 151 180 293 347 316 372
l41 45 -3 -391 -2 -391 -27 -36 c-16 -19 -28 -38 -28 -41 0 -3 74 -6 165 -6
91 0 165 2 165 5 0 2 -11 20 -24 40 -26 37 -40 113 -34 175 l3 35 400 5 c389
5 401 6 430 27 124 88 143 246 42 351 -29 31 -209 154 -962 662 -144 96 -359
242 -478 325 l-218 150 3 100 3 100 73 36 c178 88 258 251 208 423 -58 198
-269 322 -469 275z m185 -1082 c35 -23 183 -125 330 -226 l268 -184 -18 -22
c-9 -13 -154 -183 -321 -379 -167 -196 -309 -364 -316 -372 -10 -14 -26 0
-106 92 -161 184 -555 658 -562 676 -5 14 55 59 321 238 180 120 330 220 334
220 3 0 35 -19 70 -43z m-937 -905 l0 -343 -373 1 c-267 0 -378 4 -392 12 -46
29 -54 110 -15 156 14 17 128 99 253 183 125 84 274 187 332 228 149 108 153
111 175 108 20 -2 20 -9 20 -345z m1856 284 c52 -36 213 -145 358 -243 144
-98 276 -193 292 -211 41 -46 40 -102 0 -143 l-29 -29 -371 0 c-204 0 -374 -1
-378 -2 -9 -3 -16 659 -8 679 9 25 44 12 136 -51z"/>
</g>
</svg>
